<svg width="66" height="52" viewBox="0 0 66 52" fill="none" xmlns="http://www.w3.org/2000/svg">
<path d="M22.9817 10.4904C24.624 7.26891 29.2151 7.26891 30.8573 10.4904L32.9363 14.5685C33.5794 15.8301 34.7851 16.7075 36.1806 16.9297L40.6856 17.647C44.2539 18.2151 45.6739 22.6015 43.1186 25.1628L39.9041 28.3849C38.9032 29.3882 38.4416 30.8113 38.6624 32.2131L39.3723 36.7186C39.9357 40.294 36.2201 43.0035 33.0014 41.3643L28.9221 39.2869C27.6636 38.6459 26.1755 38.6459 24.9169 39.2869L20.8376 41.3643C17.6189 43.0035 13.9034 40.294 14.4668 36.7186L15.1766 32.2131C15.3975 30.8113 14.9359 29.3882 13.9349 28.3849L10.7204 25.1628C8.16519 22.6015 9.58518 18.2151 13.1535 17.647L17.6585 16.9297C19.054 16.7075 20.2596 15.8301 20.9028 14.5685L22.9817 10.4904Z" fill="#FFE550"/>
<path d="M1.81395 33.0801L1.77952 33.0883C1.78376 33.2088 1.77778 33.6962 1.76158 34.5506C1.75685 35.4022 1.75571 35.9614 1.75816 36.2281C1.75789 36.4833 1.75248 36.6912 1.74193 36.8516C1.74286 37.0093 1.74348 37.1914 1.74381 37.3979C1.74142 37.5929 1.73087 37.7533 1.71216 37.8793C1.7022 37.991 1.69225 38.1027 1.6823 38.2144C1.65967 38.4263 1.61392 38.5404 1.54506 38.5567C1.39585 38.592 1.16265 38.4771 0.845457 38.212C0.525548 37.9354 0.341114 37.6935 0.292155 37.4864C0.243196 37.2793 0.23032 35.7635 0.253525 32.9392C0.288207 30.1121 0.212309 28.2529 0.0258301 27.3615C-0.0149688 27.1889 -0.007436 27.0413 0.0484284 26.9187C0.106087 26.6499 0.40388 26.3971 0.941807 26.1605C1.49121 25.9211 2.3111 25.6723 3.40148 25.4142C4.50334 25.1534 5.37777 25.0071 6.02476 24.9755C6.68324 24.9411 7.03695 25.0275 7.08591 25.2346C7.11855 25.3727 7.04411 25.4936 6.86259 25.5973C6.68107 25.701 6.51978 25.7878 6.37873 25.8576C6.23496 25.916 6.04664 25.9909 5.81377 26.0825C5.57818 26.1626 5.3598 26.2386 5.15864 26.3105C4.95476 26.3709 4.69048 26.4577 4.36579 26.5711C4.05257 26.6816 3.76231 26.7868 3.495 26.8865C3.22498 26.9748 2.86147 27.1033 2.40449 27.2723C1.9475 27.4412 1.6515 27.5477 1.51649 27.5918C1.53613 27.6236 1.55411 27.674 1.57043 27.7431C1.69826 28.2839 1.7682 29.5795 1.78024 31.6301C2.50002 31.4962 3.2592 31.2982 4.0578 31.0363C4.86787 30.7716 5.36473 30.6176 5.54837 30.5741C5.98453 30.4708 6.22436 30.5113 6.26788 30.6954C6.3522 31.0521 5.92364 31.4694 4.9822 31.9474C4.05223 32.4227 2.99615 32.8003 1.81395 33.0801Z" fill="#2C2C2C"/>
<path d="M13.0529 29.9094C12.9605 29.5182 12.8103 29.1649 12.6024 28.8496C12.3919 28.5228 12.147 28.3074 11.8679 28.2033C11.1276 28.6094 10.5902 29.3867 10.2557 30.5351C9.92993 31.6693 9.87176 32.6794 10.0812 33.5654C10.2906 34.4514 10.6393 34.952 11.1271 35.0674C11.9154 34.7107 12.4823 33.9812 12.8277 32.8788C13.1818 31.7622 13.2569 30.7724 13.0529 29.9094ZM8.56171 31.1366C8.75128 30.144 9.09944 29.2839 9.60619 28.5565C10.1217 27.8148 10.718 27.3638 11.3952 27.2035C12.0839 27.0405 12.7271 27.198 13.325 27.6762C13.9201 28.1428 14.3169 28.7961 14.5154 29.6361C14.7113 30.4646 14.7117 31.3636 14.5167 32.3332C14.319 33.2912 13.9323 34.1422 13.3567 34.8859C12.7898 35.6155 12.1104 36.074 11.3184 36.2615C10.7331 36.4 10.1814 36.2451 9.66328 35.7967C9.1452 35.3482 8.78825 34.7098 8.59241 33.8813C8.39386 33.0414 8.38363 32.1264 8.56171 31.1366Z" fill="#2C2C2C"/>
<path d="M20.8542 28.0627C20.7617 27.6715 20.6115 27.3183 20.4037 27.0029C20.1931 26.6761 19.9483 26.4607 19.6692 26.3567C18.9289 26.7628 18.3915 27.54 18.0569 28.6884C17.7312 29.8226 17.673 30.8327 17.8824 31.7187C18.0919 32.6047 18.4405 33.1054 18.9283 33.2208C19.7166 32.864 20.2835 32.1345 20.6289 31.0321C20.9831 29.9155 21.0582 28.9257 20.8542 28.0627ZM16.363 29.2899C16.5525 28.2973 16.9007 27.4373 17.4074 26.7098C17.9229 25.9681 18.5193 25.5171 19.1965 25.3568C19.8851 25.1938 20.5284 25.3514 21.1262 25.8295C21.7213 26.2962 22.1181 26.9495 22.3167 27.7894C22.5125 28.6179 22.5129 29.5169 22.3179 30.4865C22.1202 31.4446 21.7335 32.2955 21.1579 33.0393C20.5911 33.7688 19.9116 34.2273 19.1197 34.4148C18.5343 34.5534 17.9826 34.3984 17.4645 33.95C16.9464 33.5016 16.5895 32.8631 16.3937 32.0347C16.1951 31.1947 16.1849 30.2798 16.363 29.2899Z" fill="#2C2C2C"/>
<path d="M28.9888 17.9357C29.1724 17.8923 29.437 18.0119 29.7826 18.2946C30.1369 18.5631 30.3495 18.8469 30.4202 19.1461C30.4909 19.4452 30.5487 20.3307 30.5936 21.8024C30.6358 23.2626 30.6443 24.7854 30.6191 26.3709C30.5869 29.9264 30.4388 31.7354 30.1748 31.7979C30.0142 31.8359 29.8131 31.7802 29.5718 31.6308C29.3392 31.4672 29.2052 31.3105 29.1698 31.161C29.1345 31.0114 29.1039 30.7027 29.0782 30.2349C28.2254 31.6518 27.38 32.4594 26.5422 32.6578C26.0371 32.7773 25.5236 32.6559 25.0016 32.2934C24.4911 31.9283 24.1774 31.4983 24.0604 31.0035C23.8918 30.2901 23.8813 29.3996 24.0288 28.3319C24.1852 27.2499 24.5297 26.2207 25.0624 25.2441C25.5951 24.2674 26.2689 23.6827 27.0838 23.4898C27.8987 23.2969 28.5825 23.6514 29.135 24.5534C29.1438 21.9755 29.0095 19.9721 28.7324 18.5432C28.6508 18.198 28.7362 17.9955 28.9888 17.9357ZM29.0982 26.8585C28.9513 26.2372 28.7185 25.7394 28.3998 25.3653C28.0925 24.9885 27.7897 24.8354 27.4913 24.906C26.9978 25.0229 26.5648 25.4473 26.1925 26.1794C25.8201 26.9115 25.5728 27.7112 25.4506 28.5785C25.3372 29.4316 25.3484 30.1458 25.4844 30.7211C25.5334 30.9282 25.6474 31.0774 25.8266 31.1687C26.0057 31.2599 26.1986 31.2811 26.4051 31.2322C26.8528 31.1262 27.3792 30.6614 27.9844 29.8377C28.6011 29.0113 28.9783 28.1201 29.1159 27.1641L29.1186 26.9448L29.0982 26.8585Z" fill="#2C2C2C"/>
<path d="M40.0893 25.8241C40.3123 26.7677 40.0753 27.6621 39.3783 28.5076C38.6785 29.3415 37.7777 29.8888 36.6758 30.1496C35.5855 30.4078 34.6178 30.3391 33.7729 29.9438C32.9253 29.5369 32.4417 29.0803 32.322 28.574C32.2404 28.2288 32.3029 28.0318 32.5095 27.9829C32.6931 27.9394 33.12 28.13 33.79 28.5546C34.0428 28.7013 34.3618 28.8202 34.7469 28.9113C35.1435 28.9997 35.5369 28.9977 35.9272 28.9053C36.7306 28.7151 37.3933 28.3395 37.9152 27.7786C38.4485 27.2149 38.6581 26.6915 38.5438 26.2082C38.4704 25.8975 38.17 25.5495 37.6425 25.164C37.1151 24.7785 36.5486 24.4327 35.9429 24.1265C35.346 23.8061 34.7825 23.4474 34.2523 23.0504C33.7222 22.6535 33.4231 22.3112 33.3551 22.0235C33.2871 21.7358 33.2724 21.4173 33.311 21.068C33.3496 20.7186 33.4201 20.4529 33.5225 20.2707C33.8532 19.6699 34.4401 19.0511 35.2834 18.4141C36.1381 17.7743 36.8869 17.3784 37.5296 17.2262C37.8625 17.1474 38.1695 17.1902 38.4508 17.3545C38.732 17.5187 38.9012 17.7217 38.9583 17.9633C38.9855 18.0784 38.8867 18.199 38.662 18.3251C38.4373 18.4512 38.0918 18.6302 37.6254 18.8621C37.1679 19.0797 36.7674 19.3082 36.424 19.5474C35.2237 20.3662 34.6793 21.0114 34.7908 21.4832C34.8507 21.7363 35.6894 22.285 37.307 23.1293C37.9296 23.4558 38.5182 23.8693 39.0728 24.3698C39.6362 24.8561 39.975 25.3409 40.0893 25.8241Z" fill="#2C2C2C"/>
<path d="M44.0441 26.6923C44.0958 26.9109 44.2478 26.9903 44.5004 26.9306C44.9365 26.8273 45.4359 26.5815 45.9986 26.1932C46.57 25.7906 46.8902 25.5812 46.959 25.5649C47.1656 25.516 47.2948 25.6008 47.3465 25.8194C47.4253 26.1531 47.1721 26.6201 46.5868 27.2204C46.013 27.8179 45.4449 28.1832 44.8825 28.3164C44.3315 28.4468 43.8371 28.4059 43.3991 28.1937C42.9584 27.9699 42.6999 27.697 42.6238 27.3748C42.5476 27.0526 42.5199 26.6278 42.5407 26.1005C42.5587 25.5616 42.5975 24.8538 42.6568 23.977C42.725 23.0861 42.7698 22.3525 42.7911 21.7764C42.2816 22.0307 41.935 22.1796 41.7514 22.223C41.5677 22.2665 41.3623 22.2179 41.1352 22.0773C40.9168 21.9224 40.7872 21.7587 40.7464 21.5861C40.6811 21.31 41.3646 20.8687 42.7968 20.2624C42.7777 19.2584 42.6811 18.3883 42.507 17.6518C42.4254 17.3067 42.4994 17.1069 42.7289 17.0526C42.924 17.0064 43.195 17.0759 43.5418 17.2611C43.8858 17.4348 44.0946 17.677 44.168 17.9877C44.2415 18.2983 44.2731 18.868 44.2629 19.6966C44.9036 19.4842 45.419 19.3318 45.8092 19.2395C46.4979 19.0764 46.8776 19.1445 46.9483 19.4437C46.9891 19.6163 46.8337 19.8049 46.4822 20.0097C46.1421 20.2117 45.4038 20.5748 44.2672 21.099C44.241 22.065 44.183 23.1784 44.0932 24.439C44.0006 25.688 43.9842 26.4392 44.0441 26.6923Z" fill="#2C2C2C"/>
<path d="M51.7377 17.6538C52.2542 17.5316 52.7931 17.6835 53.3544 18.1095C53.9129 18.5241 54.2425 18.9442 54.3432 19.37C54.4411 19.7842 54.3982 20.2439 54.2147 20.7491C54.3932 20.889 54.4974 21.0223 54.5273 21.1489C54.6035 21.4711 54.6594 22.041 54.6952 22.8588C54.7424 23.6738 54.7774 24.2063 54.8001 24.456C54.8342 24.7031 54.8575 24.9041 54.8699 25.0592C54.8796 25.2027 54.8835 25.3475 54.8817 25.4938C54.9038 25.7923 54.8345 25.9606 54.6738 25.9986C54.4672 26.0475 54.2529 25.9099 54.0309 25.5858C53.8176 25.2475 53.6315 24.7934 53.4725 24.2235C52.7583 25.7656 51.9651 26.6398 51.0928 26.8463C50.5648 26.9713 49.9896 26.8705 49.367 26.544C48.7532 26.2033 48.3891 25.7913 48.2749 25.3081C48.1117 24.6177 48.1629 23.7064 48.4286 22.5743C48.6915 21.4307 49.1309 20.3668 49.7467 19.3827C50.3624 18.3986 51.0261 17.8223 51.7377 17.6538ZM53.2478 20.5041C52.9948 19.434 52.656 18.9492 52.2313 19.0497C51.7837 19.1557 51.3376 19.6015 50.8931 20.3871C50.4458 21.1613 50.1108 21.9999 49.888 22.9032C49.6652 23.8065 49.6096 24.494 49.7211 24.9657C49.7673 25.1613 49.8857 25.3034 50.0764 25.3919C50.2642 25.469 50.4672 25.4817 50.6853 25.4301C51.2248 25.3024 51.7474 24.7959 52.2532 23.9107C52.7563 23.014 53.0161 22.0109 53.0326 20.9013C53.0262 20.7205 53.0993 20.5939 53.2518 20.5213L53.2478 20.5041Z" fill="#2C2C2C"/>
<path d="M49.9834 32.4563C49.4913 32.5781 49.1033 32.9532 48.9409 33.4346C45.844 42.6152 37.1696 49.2285 26.9471 49.2285C20.748 49.2285 15.1182 46.7965 10.9563 42.8347C10.5896 42.4857 10.0735 42.3359 9.5827 42.4574C8.54463 42.7144 8.15196 43.9757 8.9223 44.7192C13.593 49.2274 19.9466 52 26.9471 52C38.4483 52 48.2034 44.5163 51.6184 34.1479C51.9534 33.1307 51.0205 32.1995 49.9834 32.4563Z" fill="#BBF330"/>
<path d="M3.03364 22.994C3.59464 22.8551 4.01085 22.3866 4.11445 21.8166C6.08251 10.9873 15.5532 2.77153 26.9471 2.77153C34.3553 2.77153 40.9504 6.24471 45.199 11.6512C45.5555 12.1049 46.1395 12.3232 46.6988 12.1848C47.6472 11.95 48.0757 10.8447 47.4761 10.0714C42.7248 3.94355 35.296 0 26.9471 0C14.1397 0 3.49748 9.28018 1.36435 21.4898C1.19616 22.4525 2.08738 23.2282 3.03364 22.994Z" fill="#BBF330"/>
<path d="M66 8.66357C59.8621 20.4303 57.1676 12.6692 48.5274 17.2282C49.3916 3.56921 58.5426 11.8801 66 8.66357Z" fill="#BBF330"/>
</svg>
